<svg width="128" height="30" viewBox="0 0 128 30" fill="none" xmlns="http://www.w3.org/2000/svg">
<path fill-rule="evenodd" clip-rule="evenodd" d="M1.69241 24.1612C0.0740153 23.2268 -0.480487 21.1573 0.453895 19.5389L7.6487 7.07718C8.58308 5.45879 10.6525 4.90428 12.2709 5.83866C13.8893 6.77304 14.4438 8.84248 13.5094 10.4609L6.31463 22.9226C5.38025 24.541 3.31081 25.0955 1.69241 24.1612ZM12.7979 24.1612C11.1795 23.2268 10.625 21.1573 11.5594 19.5389L18.7542 7.07718C19.6885 5.45879 21.758 4.90428 23.3764 5.83866C24.9948 6.77304 25.5493 8.84248 24.6149 10.4609L17.4201 22.9226C16.4857 24.541 14.4163 25.0955 12.7979 24.1612ZM22.6883 19.5389C21.7539 21.1573 22.3084 23.2268 23.9268 24.1612C25.5452 25.0955 27.6146 24.541 28.549 22.9226L29.5463 21.1953C30.4807 19.5769 29.9262 17.5074 28.3078 16.5731C26.6894 15.6387 24.62 16.1932 23.6856 17.8116L22.6883 19.5389Z" fill="white"/>
<path d="M42.0683 23.8663C41.8798 23.8663 41.7256 23.8063 41.6057 23.6864C41.4857 23.5665 41.4258 23.4208 41.4258 23.2495V6.51849C41.4258 6.33002 41.4857 6.17582 41.6057 6.05588C41.7256 5.93594 41.8798 5.87598 42.0683 5.87598H44.0986C44.3385 5.87598 44.5184 5.94451 44.6383 6.08158C44.7583 6.20152 44.8354 6.29575 44.8696 6.36429L49.8298 15.6165L54.8414 6.36429C54.8757 6.29575 54.9528 6.20152 55.0727 6.08158C55.1927 5.94451 55.3726 5.87598 55.6124 5.87598H57.6171C57.8056 5.87598 57.9598 5.93594 58.0797 6.05588C58.1996 6.17582 58.2596 6.33002 58.2596 6.51849V23.2495C58.2596 23.4208 58.1996 23.5665 58.0797 23.6864C57.9598 23.8063 57.8056 23.8663 57.6171 23.8663H55.4582C55.2698 23.8663 55.1156 23.8063 54.9956 23.6864C54.8928 23.5665 54.8414 23.4208 54.8414 23.2495V12.1212L51.2434 18.9832C51.1577 19.1374 51.0463 19.2745 50.9093 19.3944C50.7722 19.4972 50.5923 19.5486 50.3695 19.5486H49.3158C49.076 19.5486 48.8875 19.4972 48.7504 19.3944C48.6305 19.2745 48.5277 19.1374 48.442 18.9832L44.8439 12.1212V23.2495C44.8439 23.4208 44.784 23.5665 44.664 23.6864C44.5441 23.8063 44.3985 23.8663 44.2271 23.8663H42.0683Z" fill="white"/>
<path d="M69.4263 24.1233C67.9356 24.1233 66.642 23.8749 65.5455 23.378C64.4489 22.864 63.6008 22.0844 63.0011 21.0393C62.4015 19.977 62.1016 18.6234 62.1016 16.9786V6.51849C62.1016 6.33002 62.1616 6.17582 62.2815 6.05588C62.4015 5.93594 62.5471 5.87598 62.7184 5.87598H65.0572C65.2457 5.87598 65.3913 5.93594 65.4941 6.05588C65.614 6.17582 65.674 6.33002 65.674 6.51849V16.9786C65.674 18.3835 66.0081 19.4287 66.6763 20.114C67.3445 20.7823 68.2612 21.1164 69.4263 21.1164C70.5914 21.1164 71.4994 20.7823 72.1505 20.114C72.8187 19.4287 73.1528 18.3835 73.1528 16.9786V6.51849C73.1528 6.33002 73.2128 6.17582 73.3327 6.05588C73.4527 5.93594 73.6069 5.87598 73.7953 5.87598H76.1084C76.2969 5.87598 76.4425 5.93594 76.5453 6.05588C76.6652 6.17582 76.7252 6.33002 76.7252 6.51849V16.9786C76.7252 18.6234 76.4254 19.977 75.8257 21.0393C75.2431 22.0844 74.4036 22.864 73.307 23.378C72.2276 23.8749 70.934 24.1233 69.4263 24.1233Z" fill="white"/>
<path d="M81.1949 23.8663C81.0235 23.8663 80.8779 23.8063 80.758 23.6864C80.638 23.5665 80.5781 23.4208 80.5781 23.2495V6.51849C80.5781 6.33002 80.638 6.17582 80.758 6.05588C80.8779 5.93594 81.0235 5.87598 81.1949 5.87598H92.3489C92.5373 5.87598 92.6916 5.93594 92.8115 6.05588C92.9314 6.17582 92.9914 6.33002 92.9914 6.51849V8.31752C92.9914 8.50599 92.9314 8.6602 92.8115 8.78013C92.6916 8.88293 92.5373 8.93433 92.3489 8.93433H84.099V13.8174H91.8349C92.0233 13.8174 92.1775 13.8774 92.2975 13.9973C92.4174 14.1173 92.4774 14.2715 92.4774 14.4599V16.259C92.4774 16.4303 92.4174 16.5759 92.2975 16.6959C92.1775 16.8158 92.0233 16.8758 91.8349 16.8758H84.099V23.2495C84.099 23.4208 84.0391 23.5665 83.9191 23.6864C83.7992 23.8063 83.645 23.8663 83.4565 23.8663H81.1949Z" fill="white"/>
<path d="M96.6305 23.8663C96.4592 23.8663 96.3135 23.8063 96.1936 23.6864C96.0737 23.5665 96.0137 23.4208 96.0137 23.2495V6.51849C96.0137 6.33002 96.0737 6.17582 96.1936 6.05588C96.3135 5.93594 96.4592 5.87598 96.6305 5.87598H107.938C108.127 5.87598 108.281 5.93594 108.401 6.05588C108.521 6.17582 108.581 6.33002 108.581 6.51849V8.21472C108.581 8.38606 108.521 8.53169 108.401 8.65163C108.281 8.77156 108.127 8.83153 107.938 8.83153H99.4833V13.3805H107.373C107.561 13.3805 107.715 13.4405 107.835 13.5604C107.955 13.6632 108.015 13.8089 108.015 13.9973V15.5908C108.015 15.7792 107.955 15.9334 107.835 16.0534C107.715 16.1562 107.561 16.2076 107.373 16.2076H99.4833V20.9108H108.144C108.332 20.9108 108.487 20.9707 108.606 21.0907C108.726 21.2106 108.786 21.3648 108.786 21.5533V23.2495C108.786 23.4208 108.726 23.5665 108.606 23.6864C108.487 23.8063 108.332 23.8663 108.144 23.8663H96.6305Z" fill="white"/>
<path d="M111 23.8663C110.846 23.8663 110.718 23.8149 110.615 23.7121C110.512 23.6093 110.461 23.4808 110.461 23.3266C110.461 23.2752 110.469 23.2238 110.486 23.1724C110.504 23.121 110.521 23.0696 110.538 23.0182L116.295 14.6912L110.898 6.72409C110.846 6.62129 110.82 6.51849 110.82 6.41569C110.82 6.26148 110.872 6.13298 110.975 6.03018C111.077 5.92738 111.197 5.87598 111.335 5.87598H113.982C114.187 5.87598 114.35 5.92738 114.47 6.03018C114.59 6.13298 114.693 6.24435 114.778 6.36429L118.556 11.9156L122.36 6.36429C122.429 6.24435 122.523 6.13298 122.643 6.03018C122.78 5.92738 122.951 5.87598 123.157 5.87598H125.65C125.804 5.87598 125.932 5.92738 126.035 6.03018C126.138 6.13298 126.189 6.26148 126.189 6.41569C126.189 6.51849 126.155 6.62129 126.087 6.72409L120.715 14.6912L126.472 23.0182C126.506 23.0696 126.532 23.121 126.549 23.1724C126.566 23.2238 126.575 23.2752 126.575 23.3266C126.575 23.4808 126.515 23.6093 126.395 23.7121C126.292 23.8149 126.172 23.8663 126.035 23.8663H123.311C123.105 23.8663 122.943 23.8149 122.823 23.7121C122.703 23.6093 122.608 23.5065 122.54 23.4037L118.428 17.5954L114.393 23.4037C114.324 23.5065 114.23 23.6093 114.11 23.7121C113.99 23.8149 113.819 23.8663 113.596 23.8663H111Z" fill="white"/>
</svg>
